<svg width="20" height="17" fill="none" xmlns="http://www.w3.org/2000/svg"><path d="M1.92 5.317c.253.182 1.015.72 2.288 1.616C5.48 7.828 6.455 8.518 7.132 9l.474.346c.242.178.443.321.602.431.16.11.354.232.58.368.228.136.442.238.643.306.2.068.387.102.558.102h.022c.171 0 .357-.034.558-.102.201-.068.415-.17.642-.306.227-.136.42-.259.58-.368.16-.11.361-.253.603-.43.242-.179.4-.294.474-.347l5.223-3.684c.544-.385.997-.85 1.362-1.394.365-.544.547-1.115.547-1.712a1.75 1.75 0 0 0-.53-1.28 1.712 1.712 0 0 0-1.256-.534H1.786C1.213.397.772.594.463.987.154 1.38 0 1.87 0 2.46c0 .476.205.992.614 1.547.409.555.844.992 1.306 1.31z" fill="#fff" fill-opacity=".5"/><path d="M18.884 6.53c-2.44 1.677-4.293 2.981-5.558 3.91-.424.318-.768.566-1.032.743a6.335 6.335 0 0 1-1.055.544c-.439.186-.848.278-1.228.278H9.99c-.38 0-.789-.092-1.228-.278a6.34 6.34 0 0 1-1.055-.544 26.323 26.323 0 0 1-1.032-.742C5.67 9.693 3.821 8.389 1.127 6.53A5.939 5.939 0 0 1 0 5.544v9c0 .5.175.926.525 1.281.35.356.77.533 1.26.533h16.43c.49 0 .91-.177 1.26-.533a1.76 1.76 0 0 0 .525-1.28V5.543c-.32.362-.692.691-1.116.986z" fill="#fff" fill-opacity=".5"/></svg>